# xmcd
#
# Track frame offsets:
# 150
# 14516
# 27397
# 45645
# 62245
# 74611
# 88462
# 100470
# 114061
# 127794
# 144752
# 161098
#
# Disc length: 2411 seconds
#
#
# Revision: 0
# Processed by: cddbd v1.5.2PL0 Copyright (c) Steve Scherf et al.
# Submitted via: FreeRIP 2.945 
#
DISCID=a409690c
DTITLE=Os Cinquentões - Grupo de Bandoneon
DYEAR=1996
DGENRE=Folklore
TTITLE0=Menino D'Água
TTITLE1=Am Golf Von Biscaia
TTITLE2=Wien Immer Wien
TTITLE3=Der Maler Und Der Pinsel
TTITLE4=Lindler Walser
TTITLE5=Saudade de Montres
TTITLE6=Laraspa
TTITLE7=Erika
TTITLE8=Kamnik
TTITLE9=Reuberbraut
TTITLE10=Barril de Chopp
TTITLE11=Ponto Chic
EXTD=
EXTT0=
EXTT1=
EXTT2=
EXTT3=
EXTT4=
EXTT5=
EXTT6=
EXTT7=
EXTT8=
EXTT9=
EXTT10=
EXTT11=
PLAYORDER=
